<svg width="18" height="13" viewBox="0 0 18 13" fill="none" xmlns="http://www.w3.org/2000/svg">
<path d="M8.00702 12.3983C8.08707 12.5117 8.19419 12.6044 8.31914 12.6684C8.4441 12.7325 8.58315 12.766 8.72431 12.766C8.86547 12.766 9.00452 12.7325 9.12947 12.6684C9.25443 12.6044 9.36154 12.5117 9.4416 12.3983L17.2952 1.33523C17.3861 1.20763 17.4394 1.05817 17.4493 0.903092C17.4592 0.748017 17.4254 0.593256 17.3514 0.455623C17.2775 0.317991 17.1663 0.202751 17.0299 0.122424C16.8935 0.0420976 16.7372 -0.00024368 16.5779 1.05495e-06H0.870751C0.711798 0.000641359 0.556031 0.0435271 0.420202 0.124046C0.284373 0.204565 0.17362 0.319671 0.0998538 0.456985C0.0260879 0.594299 -0.00789995 0.748626 0.00154523 0.90337C0.0109904 1.05811 0.0635113 1.20742 0.15346 1.33523L8.00702 12.3983Z" fill="white"/>
</svg>
