<svg width="38" height="38" viewBox="0 0 38 38" fill="none" xmlns="http://www.w3.org/2000/svg">
<path d="M38 19C38 29.4934 29.4934 38 19 38C8.50659 38 0 29.4934 0 19C0 8.50659 8.50659 0 19 0C29.4934 0 38 8.50659 38 19Z" fill="#F3610E"/>
<path d="M20.4734 13.4864C23.3067 13.4864 24.5153 14.6948 24.5153 17.528H27.2099C27.2099 13.1832 24.8184 10.792 20.4734 10.792V13.4864ZM25.0838 20.8192C24.8249 20.5839 24.4848 20.4584 24.1351 20.4692C23.7854 20.48 23.4536 20.6263 23.2097 20.8771L19.9857 24.1926C19.2096 24.0444 17.6494 23.5581 16.0435 21.9562C14.4375 20.349 13.9511 18.7849 13.8069 18.0143L17.1199 14.7891C17.3711 14.5454 17.5176 14.2136 17.5284 13.8639C17.5392 13.5141 17.4135 13.1739 17.1779 12.9152L12.1996 7.44147C11.9639 7.18194 11.6363 7.02451 11.2863 7.00263C10.9364 6.98074 10.5917 7.09612 10.3255 7.32426L7.40188 9.83141C7.16894 10.0652 7.02991 10.3763 7.01116 10.7057C6.99095 11.0425 6.60562 19.0207 12.7924 25.2097C18.1897 30.6053 24.9505 31 26.8124 31C27.0846 31 27.2516 30.9919 27.2961 30.9892C27.6255 30.9708 27.9365 30.8311 28.1692 30.5972L30.6751 27.6724C30.9035 27.4064 31.0191 27.0618 30.9974 26.7119C30.9758 26.362 30.8186 26.0343 30.5593 25.7985L25.0838 20.8192Z" fill="white"/>
</svg>
